<svg id="SvgjsSvg1021" width="288" height="288" xmlns="http://www.w3.org/2000/svg" version="1.1" xmlns:xlink="http://www.w3.org/1999/xlink" xmlns:svgjs="http://svgjs.com/svgjs"><defs id="SvgjsDefs1022"></defs><g id="SvgjsG1023"><svg xmlns="http://www.w3.org/2000/svg" viewBox="0 0 29 29" width="288" height="288"><path fill="none" stroke="#8787fd" stroke-miterlimit="10" stroke-width="2" d="M23.5 10h-4.343a3.995 3.995 0 0 0-2.828 1.172l-6.657 6.657A4.003 4.003 0 0 1 6.843 19H2.5" class="colorStroke000 svgStroke"></path><path fill="none" stroke="#8787fd" stroke-miterlimit="10" stroke-width="2" d="M2.5 10h4.343c1.061 0 2.078.421 2.828 1.172l6.657 6.657a4.001 4.001 0 0 0 2.828 1.172H23.5" class="colorStroke000 svgStroke"></path><path d="M21.5 12.412V7.588c0-.368.401-.596.717-.408l4.052 2.412a.474.474 0 0 1 0 .815l-4.052 2.412a.474.474 0 0 1-.717-.407zM21.5 21.412v-4.823c0-.368.401-.596.717-.408l4.052 2.412a.474.474 0 0 1 0 .815l-4.052 2.412a.475.475 0 0 1-.717-.408z" fill="#8787fd" class="color000 svgShape"></path></svg></g></svg>